<svg width="106" height="118" viewBox="0 0 106 118" fill="none" xmlns="http://www.w3.org/2000/svg">
<path d="M2.37997 89.3622L2.36673 89.3547L2.35307 89.3481C1.12162 88.7491 0.5 87.5525 0.5 86.3373V31.6627C0.5 30.4475 1.12162 29.2509 2.35307 28.6519L2.36673 28.6453L2.37997 28.6378L51.4672 0.954577L51.5237 0.922699L51.5702 0.877449C51.8042 0.649878 52.1951 0.5 52.7333 0.5C53.2636 0.5 53.8954 0.647651 54.5466 0.962209L103.62 28.6378L103.633 28.6453L103.647 28.6519C104.879 29.2509 105.5 30.4474 105.5 31.6627V86.3373C105.5 87.5526 104.879 88.7491 103.647 89.3481L103.633 89.3547L103.62 89.3622L54.533 117.045L54.4765 117.077L54.43 117.123C54.1961 117.35 53.8051 117.5 53.2669 117.5C52.7367 117.5 52.1048 117.352 51.4537 117.038L2.37997 89.3622Z" stroke="#009ac6"/>
</svg>
