<svg width="201" height="276" viewBox="0 0 201 276" fill="none" xmlns="http://www.w3.org/2000/svg">
<path d="M-40.7802 209.6L-40.7935 209.593L-40.8072 209.586C-43.931 208.061 -45.5 205.011 -45.5 201.941V74.0585C-45.5 70.9889 -43.931 67.9392 -40.8072 66.414L-40.7935 66.4073L-40.7802 66.3998L73.6023 1.64919L73.6588 1.61719L73.7053 1.57181C74.4124 0.881278 75.5129 0.5 76.8786 0.5C78.2363 0.5 79.8142 0.879023 81.4116 1.65677L195.781 66.3998L195.794 66.4073L195.808 66.414C198.931 67.9392 200.5 70.9889 200.5 74.0585V201.941C200.5 205.011 198.931 208.061 195.808 209.586L195.794 209.593L195.781 209.6L81.3982 274.351L81.3417 274.383L81.2952 274.428C80.5881 275.119 79.4876 275.5 78.1219 275.5C76.7642 275.5 75.1863 275.121 73.5889 274.343L-40.7802 209.6Z" stroke="#009ac6"/>
</svg>
