<svg width="79" height="88" viewBox="0 0 79 88" fill="none" xmlns="http://www.w3.org/2000/svg">
<path d="M1.83644 66.5323L1.82319 66.5249L1.80952 66.5182C0.940526 66.0952 0.5 65.2506 0.5 64.3871V23.6129C0.5 22.7494 0.940526 21.9048 1.80952 21.4818L1.82319 21.4751L1.83644 21.4677L38.4203 0.822544L38.4768 0.790646L38.5233 0.745372C38.6667 0.605844 38.9217 0.5 39.3013 0.5C39.673 0.5 40.1236 0.603697 40.5935 0.830236L77.1637 21.4677L77.177 21.4751L77.1906 21.4818C78.0596 21.9047 78.5 22.7493 78.5 23.6129V64.3871C78.5 65.2507 78.0596 66.0953 77.1906 66.5182L77.177 66.5249L77.1637 66.5323L40.5798 87.1775L40.5233 87.2094L40.4768 87.2546C40.3335 87.3942 40.0785 87.5 39.6989 87.5C39.3272 87.5 38.8765 87.3963 38.4066 87.1697L1.83644 66.5323Z" stroke="#009ac6"/>
</svg>
