<svg width="386" height="218" viewBox="0 0 386 218" fill="none" xmlns="http://www.w3.org/2000/svg">
<mask id="path-1-inside-1" fill="white">
<path fill-rule="evenodd" clip-rule="evenodd" d="M46.5959 0C44.8723 0 43.178 0.445482 41.6773 1.29323L5.08144 21.9667C1.94162 23.7404 0 27.0673 0 30.6735V207.125C0 212.648 4.47715 217.125 10 217.125H341.091C342.815 217.125 344.509 216.68 346.01 215.832L380.919 196.111C384.058 194.338 386 191.011 386 187.405V10C386 4.47715 381.523 0 376 0H46.5959Z"/>
</mask>
<path d="M380.919 196.111L381.902 197.853L380.919 196.111ZM346.01 215.832L345.026 214.09L346.01 215.832ZM41.6773 1.29323L42.661 3.03458L41.6773 1.29323ZM6.06516 23.708L42.661 3.03458L40.6936 -0.448123L4.09773 20.2253L6.06516 23.708ZM2 207.125V30.6735H-2V207.125H2ZM341.091 215.125H10V219.125H341.091V215.125ZM379.935 194.37L345.026 214.09L346.994 217.573L381.902 197.853L379.935 194.37ZM384 10V187.405H388V10H384ZM46.5959 2H376V-2H46.5959V2ZM388 10C388 3.37258 382.627 -2 376 -2V2C380.418 2 384 5.58172 384 10H388ZM381.902 197.853C385.67 195.724 388 191.732 388 187.405H384C384 190.29 382.447 192.951 379.935 194.37L381.902 197.853ZM341.091 219.125C343.16 219.125 345.193 218.59 346.994 217.573L345.026 214.09C343.826 214.769 342.47 215.125 341.091 215.125V219.125ZM-2 207.125C-2 213.752 3.37258 219.125 10 219.125V215.125C5.58172 215.125 2 211.543 2 207.125H-2ZM42.661 3.03458C43.8616 2.35639 45.217 2 46.5959 2V-2C44.5276 -2 42.4944 -1.46542 40.6936 -0.448123L42.661 3.03458ZM4.09773 20.2253C0.329946 22.3538 -2 26.346 -2 30.6735H2C2 27.7885 3.5533 25.127 6.06516 23.708L4.09773 20.2253Z" fill="black" mask="url(#path-1-inside-1)"/>
<path fill-rule="evenodd" clip-rule="evenodd" d="M51.4197 8C50.5829 8 49.7596 8.20999 49.025 8.61074L10.6053 29.5715C8.99926 30.4477 8 32.1312 8 33.9607V204C8 206.761 10.2386 209 13 209H336.199C337.035 209 337.859 208.79 338.593 208.389L375.395 188.311C377.001 187.435 378 185.752 378 183.922V13C378 10.2386 375.761 8 373 8H51.4197Z" fill="black"/>
</svg>
